<?xml version="1.0" encoding="iso-8859-1"?>
<!-- Generator: Adobe Illustrator 19.0.0, SVG Export Plug-In . SVG Version: 6.00 Build 0)  -->
<svg version="1.1" id="Capa_1" xmlns="http://www.w3.org/2000/svg" xmlns:xlink="http://www.w3.org/1999/xlink" x="0px" y="0px"
	 viewBox="0 0 511.999 511.999" style="enable-background:new 0 0 511.999 511.999;" xml:space="preserve">
<g>
	<g>
		<path d="M185.764,321.695c-9.712-2.009-19.366-4.252-28.766-7.471c-0.093-0.032-0.18-0.072-0.271-0.106
			c-1.685,2.521-2.67,5.55-2.67,8.81c0,8.772,7.111,15.885,15.885,15.885c8.772,0,15.884-7.111,15.884-15.885
			C185.826,322.511,185.795,322.102,185.764,321.695z"/>
	</g>
</g>
<g>
	<g>
		<path d="M353.614,311.651c-8.876,4.599-17.512,9.586-26.886,13.232c-0.015,0.006-0.03,0.008-0.045,0.014
			c0.971,7.842,7.645,13.915,15.75,13.915c8.772,0,15.884-7.111,15.884-15.885C358.315,318.518,356.517,314.529,353.614,311.651z"/>
	</g>
</g>
<g>
	<g>
		<path d="M403.873,148.42c-4.139,0-7.495,3.356-7.495,7.495v138.134c0,54.653-44.464,99.116-99.116,99.116H215.11
			c-54.653,0-99.116-44.464-99.116-99.116V162.494c0-4.139-3.356-7.495-7.495-7.495c-4.139,0-7.495,3.356-7.495,7.495v131.555
			c0,62.918,51.188,114.106,114.106,114.106h82.152c62.918,0,114.106-51.187,114.106-114.106V155.915
			C411.368,151.776,408.013,148.42,403.873,148.42z"/>
	</g>
</g>
<g>
	<g>
		<path d="M108.125,230.405H106.4c-20.176,0-36.59,16.415-36.59,36.591c0,20.176,16.414,36.59,36.59,36.59h1.725
			c4.139,0,7.495-3.356,7.495-7.495V237.9C115.62,233.761,112.264,230.405,108.125,230.405z M100.63,287.813
			c-9.118-2.53-15.829-10.905-15.829-20.817c0-9.913,6.712-18.288,15.829-20.818V287.813z"/>
	</g>
</g>
<g>
	<g>
		<path d="M405.597,230.405h-1.724c-4.139,0-7.495,3.356-7.495,7.495v58.19c0,4.139,3.356,7.495,7.495,7.495h1.724
			c20.176,0,36.591-16.415,36.591-36.59C442.188,246.819,425.773,230.405,405.597,230.405z M411.368,287.813v-41.635
			c9.118,2.53,15.83,10.905,15.83,20.818C427.198,276.908,420.486,285.283,411.368,287.813z"/>
	</g>
</g>
<g>
	<g>
		<path d="M177.904,149.425h-29.115c-7.796,0-14.139,6.343-14.139,14.139v46.036c0,4.139,3.356,7.495,7.495,7.495
			c4.139,0,7.495-3.356,7.494-7.495v-45.184h28.264c4.139,0,7.495-3.356,7.495-7.495
			C185.399,152.78,182.043,149.425,177.904,149.425z"/>
	</g>
</g>
<g>
	<g>
		<path d="M383.105,57.494c-2.066-2.163-4.237-4.144-6.339-6.06c-3.775-3.441-7.34-6.693-9.553-10.332
			c-1.369-2.252-2.118-4.461-2.357-6.951c-0.203-2.111,0.017-4.406,0.249-6.836c0.59-6.174,1.324-13.858-4.774-21.503
			c-8.088-10.139-19.426-4.491-24.877-1.775c-1.034,0.515-2.011,1.001-2.79,1.327c-5.881,2.455-12.061,3.889-20.661,4.794
			c-8.782,0.923-17.903,1.159-26.723,1.388c-9.246,0.239-18.807,0.488-28.317,1.509c-42.836,4.603-75.923,13.544-101.15,27.334
			c-36.279,19.831-54.674,49.191-54.674,87.267v131.013c0,2.726,1.48,5.237,3.864,6.557c2.383,1.319,5.297,1.243,7.608-0.204
			l15.156-9.488c3.509-2.196,4.572-6.82,2.375-10.329c-2.195-3.508-6.82-4.572-10.329-2.375l-3.684,2.305V127.655
			c0-32.63,15.332-56.873,46.873-74.114c23.464-12.826,54.724-21.194,95.562-25.583c8.905-0.956,18.157-1.196,27.104-1.428
			c9.111-0.236,18.533-0.481,27.903-1.465c9.996-1.051,17.666-2.861,24.872-5.87c1.241-0.519,2.49-1.141,3.698-1.743
			c1.657-0.826,5.051-2.52,6.324-2.465c0.038,0.038,0.087,0.093,0.149,0.17c2.219,2.782,2.075,5.445,1.57,10.73
			c-0.276,2.885-0.588,6.155-0.248,9.697c0.457,4.756,1.919,9.107,4.469,13.302c3.331,5.479,7.871,9.62,12.261,13.623
			c2.001,1.825,3.891,3.549,5.599,5.337c15.234,15.95,23.971,37.75,23.971,59.809v117.479l-3.275-2.05
			c-3.507-2.199-8.133-1.133-10.329,2.375c-2.198,3.508-1.133,8.133,2.375,10.329l14.747,9.232c1.214,0.76,2.594,1.142,3.977,1.142
			c1.248,0,2.499-0.312,3.631-0.936c2.385-1.32,3.864-3.83,3.864-6.557V127.656C411.226,101.778,400.976,76.205,383.105,57.494z"/>
	</g>
</g>
<g>
	<g>
		<path d="M363.576,149.425H233.201c-4.139,0-7.495,3.356-7.495,7.495c0,4.139,3.356,7.495,7.495,7.495h129.524v45.184
			c0,4.139,3.356,7.495,7.495,7.495c4.139,0,7.495-3.356,7.494-7.495v-46.036C377.715,155.767,371.372,149.425,363.576,149.425z"/>
	</g>
</g>
<g>
	<g>
		<path d="M189.769,182.66c-19.735,0-38.289,7.685-52.242,21.64c-13.955,13.955-21.64,32.508-21.64,52.242
			c0,40.738,33.143,73.881,73.882,73.881c40.738,0,73.881-33.143,73.881-73.881C263.65,215.803,230.507,182.66,189.769,182.66z
			 M189.77,315.432c-32.474,0-58.892-26.419-58.892-58.891c0-15.731,6.126-30.52,17.249-41.642s25.912-17.249,41.642-17.249
			c32.473,0,58.891,26.419,58.892,58.891C248.661,289.013,222.243,315.432,189.77,315.432z"/>
	</g>
</g>
<g>
	<g>
		<path d="M322.604,182.66c-40.739,0-73.882,33.143-73.882,73.882c0,40.738,33.143,73.881,73.882,73.881
			c40.738,0,73.881-33.143,73.881-73.881C396.485,215.803,363.342,182.66,322.604,182.66z M322.604,315.433
			c-32.474,0-58.892-26.419-58.892-58.891c0-32.473,26.419-58.892,58.892-58.892c32.472,0,58.891,26.419,58.891,58.892
			C381.495,289.014,355.077,315.433,322.604,315.433z"/>
	</g>
</g>
<g>
	<g>
		<path d="M213.161,244.276c-4.139,0-7.495,3.356-7.495,7.495v28.156c0,4.139,3.356,7.495,7.495,7.495
			c4.14,0,7.495-3.356,7.495-7.495v-28.156C220.656,247.632,217.3,244.276,213.161,244.276z"/>
	</g>
</g>
<g>
	<g>
		<path d="M299.211,244.276c-4.139,0-7.495,3.356-7.495,7.495v28.156c0,4.139,3.356,7.495,7.495,7.495
			c4.139,0,7.495-3.356,7.495-7.495v-28.156C306.706,247.632,303.35,244.276,299.211,244.276z"/>
	</g>
</g>
<g>
	<g>
		<path d="M264.492,326.303h-9.116v-37.26c0-4.139-3.356-7.495-7.495-7.495c-4.139,0-7.495,3.356-7.495,7.495v44.755
			c0,4.139,3.356,7.495,7.495,7.495h16.611c4.139,0,7.495-3.356,7.495-7.495S268.631,326.303,264.492,326.303z"/>
	</g>
</g>
<g>
	<g>
		<path d="M260.937,355.794h-9.502c-4.139,0-7.495,3.356-7.495,7.495s3.356,7.495,7.495,7.495h9.502
			c4.139,0,7.495-3.356,7.495-7.495S265.076,355.794,260.937,355.794z"/>
	</g>
</g>
<g>
	<g>
		<path d="M323.958,489.344c-4.139,0-7.495,3.356-7.495,7.495v0.17H195.916v-35.14c0-11.888,5.764-23.143,15.419-30.106
			c4.855-3.501,10.543-5.791,16.45-6.624l0.796-0.112c5.176-0.725,9.265-1.295,12.206-4.89c2.619-3.2,2.795-6.948,2.807-12h25.191
			c0.012,5.051,0.188,8.8,2.807,12c2.942,3.595,7.03,4.166,12.206,4.89l0.795,0.112c5.907,0.831,11.595,3.122,16.45,6.624
			c5.394,3.89,9.665,9.224,12.35,15.425c1.644,3.797,6.056,5.544,9.856,3.898c3.797-1.645,5.543-6.058,3.898-9.856
			c-3.758-8.677-9.754-16.155-17.338-21.625c-6.821-4.92-14.82-8.14-23.13-9.31l-0.81-0.114c-0.693-0.097-1.422-0.199-2.082-0.299
			c-0.018-0.92-0.018-1.97-0.018-2.858v-6.382c0-4.139-3.356-7.495-7.495-7.495h-40.18c-4.139,0-7.495,3.356-7.495,7.495v6.382
			c0,0.887,0,1.938-0.018,2.858c-0.661,0.1-1.39,0.202-2.082,0.299l-0.811,0.114c-8.309,1.17-16.307,4.39-23.129,9.31
			c-13.55,9.773-21.64,25.572-21.64,42.264v42.635c0,4.139,3.356,7.495,7.495,7.495h135.538c4.139,0,7.495-3.356,7.498-7.495v-7.665
			C331.453,492.699,328.098,489.344,323.958,489.344z"/>
	</g>
</g>
<g>
	<g>
		<path d="M284.757,412.379c-2.075-3.582-6.662-4.803-10.243-2.728c-18.391,10.654-33.841,1.072-34.584,0.597
			c-3.445-2.254-8.07-1.306-10.349,2.131c-2.287,3.45-1.345,8.101,2.105,10.388c0.628,0.416,10.663,6.906,25.05,6.906
			c7.49,0,16.159-1.759,25.293-7.05C285.611,420.546,286.832,415.96,284.757,412.379z"/>
	</g>
</g>
<g>
	<g>
		<path d="M299.211,462.361h-23.943c-4.139,0-7.495,3.356-7.495,7.495s3.356,7.495,7.495,7.495h23.943
			c4.139,0,7.495-3.356,7.495-7.495S303.35,462.361,299.211,462.361z"/>
	</g>
</g>
<g>
</g>
<g>
</g>
<g>
</g>
<g>
</g>
<g>
</g>
<g>
</g>
<g>
</g>
<g>
</g>
<g>
</g>
<g>
</g>
<g>
</g>
<g>
</g>
<g>
</g>
<g>
</g>
<g>
</g>
</svg>
