<?xml version="1.0" encoding="iso-8859-1"?>
<!-- Generator: Adobe Illustrator 19.0.0, SVG Export Plug-In . SVG Version: 6.00 Build 0)  -->
<svg version="1.1" id="Layer_1" xmlns="http://www.w3.org/2000/svg" xmlns:xlink="http://www.w3.org/1999/xlink" x="0px" y="0px"
	 viewBox="0 0 512 512" style="enable-background:new 0 0 512 512;" xml:space="preserve">
<g>
	<g>
		<path d="M457.262,208.764c-12.816-40.489-50.5-68.329-93.421-68.329c-2.86,0-5.751,0.132-8.653,0.393
			C347.585,72.485,289.714,20.07,220.023,20.07c-30.798,0-60.971,10.582-84.959,29.797c-3.258,2.609-3.784,7.366-1.174,10.622
			c2.609,3.257,7.366,3.785,10.622,1.174c21.627-17.323,47.739-26.479,75.511-26.479c64.384,0,117.415,50.318,120.731,114.554
			c0.112,2.159,1.143,4.166,2.832,5.516c1.688,1.349,3.873,1.91,6.004,1.541c4.775-0.826,9.57-1.245,14.251-1.245
			c37.806,0,70.805,25.529,80.248,62.082c0.819,3.167,3.581,5.447,6.845,5.652c25.768,1.612,45.951,23.116,45.951,48.957
			c0,27.056-22.011,49.067-49.067,49.067H319.005c-0.786,0-1.543,0.12-2.255,0.343V218.173c0-4.175-3.383-7.557-7.557-7.557H191.275
			c-4.174,0-7.557,3.383-7.557,7.557v21.695c0,4.175,3.384,7.557,7.557,7.557s7.557-3.383,7.557-7.557V225.73h102.803v178.333
			c0,4.175,3.383,7.557,7.557,7.557h15.773l-74.732,62.875l-74.733-62.875h15.774c4.174,0,7.557-3.383,7.557-7.557v-75.188
			c0-0.003,0-0.006,0-0.01s0-0.006,0-0.01v-60.038c0-4.175-3.384-7.557-7.557-7.557c-4.174,0-7.557,3.383-7.557,7.557v52.491H97.993
			c-45.7,0-82.879-37.179-82.879-82.879c0-43.429,33.915-79.739,77.21-82.663c3.793-0.257,6.805-3.291,7.034-7.085
			c1.792-29.69,3.292-42.593,22.674-64.044c2.798-3.096,2.556-7.875-0.54-10.674c-3.097-2.799-7.875-2.557-10.674,0.54
			c-21.04,23.282-24.289,39.857-26.138,66.856C36.69,147.901,0,189.316,0,238.428c0,54.033,43.959,97.994,97.993,97.994h85.725
			v60.084h-28.938c-3.175,0-6.011,1.985-7.1,4.969c-1.088,2.983-0.195,6.327,2.234,8.372l95.453,80.309
			c1.407,1.183,3.136,1.774,4.866,1.774c1.73,0,3.459-0.591,4.866-1.774l95.452-80.309c2.429-2.044,3.323-5.39,2.235-8.372
			c-1.088-2.984-3.925-4.969-7.1-4.969H316.75v-60.427c0.712,0.223,1.47,0.343,2.255,0.343h128.814
			c35.389,0,64.181-28.792,64.181-64.181C512,240.261,488.361,213.357,457.262,208.764z"/>
	</g>
</g>
<g>
</g>
<g>
</g>
<g>
</g>
<g>
</g>
<g>
</g>
<g>
</g>
<g>
</g>
<g>
</g>
<g>
</g>
<g>
</g>
<g>
</g>
<g>
</g>
<g>
</g>
<g>
</g>
<g>
</g>
</svg>
